{"title":"Back.in.the.Game.S01E10.Ill.Slide.Home.for.Christmas.1080p.WEB-D","uid":9380196,"size":848659660,"categoryP":"video","categoryS":"hd___tv_shows","magnet":"?xt=urn:btih:b86217db8bcb74126a315ad31326a5ad43b88b30&amp;dn=Back.in.the.Game.S01E10.Ill.Slide.Home.for.Christmas.1080p.WEB-D&amp;tr=udp%3A%2F%2Ftracker.openbittorrent.com%3A80&amp;tr=udp%3A%2F%2Fopen.demonii.com%3A1337&amp;tr=udp%3A%2F%2Ftracker.coppersurfer.tk%3A6969&amp;tr=udp%3A%2F%2Fexodus.desync.com%3A6969","seeders":1,"leechers":0,"uploader":"azcom_","files":1,"time":1387699526,"description":"General\nUnique ID                      : 194295328874048346102741001099649356007 (0x922BEB5040B3469BA4F1BCDCD0DE10E7)\nComplete name                  : Back.in.the.Game.S01E10.Ill.Slide.Home.for.Christmas.1080p.WEB-DL.DD5.1.H.264-NTb.mkv\nFormat                         : Matroska\nFormat version                 : Version 2\nFile size                      : 809 MiB\nDuration                       : 20mn 45s\nOverall bit rate               : 5 450 Kbps\nEncoded date                   : UTC 2013-12-12 09:19:13\nWriting application            : mkvmerge v5.8.0 ('No Sleep / Pillow') built on Sep  2 2012 15:37:04\nWriting library                : libebml v1.2.3 + libmatroska v1.3.0\n\nVideo\nID                             : 1\nFormat                         : AVC\nFormat/Info                    : Advanced Video Codec\nFormat profile                 : &lt;a class=&quot;__cf_email__&quot; href=&quot;/cdn-cgi/l/email-protection&quot; data-cfemail=&quot;3d75545a557d7109130d&quot;&gt;[email&amp;#160;protected]&lt;/a&gt;&lt;script cf-hash='f9e31' type=&quot;text/javascript&quot;&gt;\n/* &lt;![CDATA[ */!function(){try{var t=&quot;currentScript&quot;in document?document.currentScript:function(){for(var t=document.getElementsByTagName(&quot;script&quot;),e=t.length;e--;)if(t[e].getAttribute(&quot;cf-hash&quot;))return t[e]}();if(t&amp;&amp;t.previousSibling){var e,r,n,i,c=t.previousSibling,a=c.getAttribute(&quot;data-cfemail&quot;);if(a){for(e=&quot;&quot;,r=parseInt(a.substr(0,2),16),n=2;a.length-n;n+=2)i=parseInt(a.substr(n,2),16)^r,e+=String.fromCharCode(i);e=document.createTextNode(e),c.parentNode.replaceChild(e,c)}}}catch(u){}}();/* ]]&gt; */&lt;/script&gt;\nFormat settings, CABAC         : Yes\nFormat settings, ReFrames      : 4 frames\nCodec ID                       : V_MPEG4/ISO/AVC\nDuration                       : 20mn 45s\nBit rate                       : 4 957 Kbps\nWidth                          : 1 912 pixels\nHeight                         : 1 072 pixels\nDisplay aspect ratio           : 16:9\nFrame rate mode                : Constant\nFrame rate                     : 23.976 fps\nColor space                    : YUV\nChroma subsampling             : 4:2:0\nBit depth                      : 8 bits\nScan type                      : Progressive\nBits/(Pixel*Frame)             : 0.101\nStream size                    : 736 MiB (91%)\nLanguage                       : English\nDefault                        : Yes\nForced                         : No\nColor primaries                : BT.709\nTransfer characteristics       : BT.709\nMatrix coefficients            : BT.709\n\nAudio\nID                             : 2\nFormat                         : AC-3\nFormat/Info                    : Audio Coding 3\nMode extension                 : CM (complete main)\nFormat settings, Endianness    : Big\nCodec ID                       : A_AC3\nDuration                       : 20mn 45s\nBit rate mode                  : Constant\nBit rate                       : 384 Kbps\nChannel count                  : 6 channels\nChannel positions              : Front: L C R, Side: L R, LFE\nSampling rate                  : 48.0 KHz\nBit depth                      : 16 bits\nCompression mode               : Lossy\nStream size                    : 57.0 MiB (7%)\nLanguage                       : English\nDefault                        : Yes\nForced                         : No\n\nText\nID                             : 3\nFormat                         : UTF-8\nCodec ID                       : S_TEXT/UTF8\nCodec ID/Info                  : UTF-8 Plain Text\nLanguage                       : English\nDefault                        : Yes\nForced                         : No\n\n","torrent":{"xt":"urn:btih:b86217db8bcb74126a315ad31326a5ad43b88b30","amp;dn":"Back.in.the.Game.S01E10.Ill.Slide.Home.for.Christmas.1080p.WEB-D","amp;tr":["udp%3A%2F%2Ftracker.openbittorrent.com%3A80","udp%3A%2F%2Fopen.demonii.com%3A1337","udp%3A%2F%2Ftracker.coppersurfer.tk%3A6969","udp%3A%2F%2Fexodus.desync.com%3A6969"],"infoHash":"b86217db8bcb74126a315ad31326a5ad43b88b30","infoHashBuffer":{"type":"Buffer","data":[184,98,23,219,139,203,116,18,106,49,90,211,19,38,165,173,67,184,139,48]},"announce":[],"urlList":[]}}